<?xml version="1.0" encoding="UTF-8"?>
<svg version="1.1" xmlns="http://www.w3.org/2000/svg" width="225" height="225">
<path d="M0 0 C74.25 0 148.5 0 225 0 C225 74.25 225 148.5 225 225 C150.75 225 76.5 225 0 225 C0 150.75 0 76.5 0 0 Z " fill="#FF0135" transform="translate(0,0)"/>
<path d="M0 0 C3.14745828 3.14745828 5.79928175 5.85181563 8.4375 9.3125 C9.03046875 10.08980469 9.6234375 10.86710938 10.234375 11.66796875 C10.81703125 12.43753906 11.3996875 13.20710937 12 14 C12.54140625 14.69738281 13.0828125 15.39476562 13.640625 16.11328125 C15.99063848 19.16948565 18.16348614 22.16910607 20 25.5625 C21.52580926 28.18498467 22.79836254 30.02742475 24.76953125 32.23828125 C27.95143559 35.89220511 30.84063329 39.70707434 33.6875 43.625 C34.39616211 44.58792969 34.39616211 44.58792969 35.11914062 45.5703125 C38.48900193 50.18319418 41.51662303 54.84221706 44 60 C44.66 60 45.32 60 46 60 C47.2890625 61.6796875 47.2890625 61.6796875 48.625 63.875 C49.07101563 64.59429687 49.51703125 65.31359375 49.9765625 66.0546875 C51 68 51 68 51 70 C51.66 70 52.32 70 53 70 C54.62726694 72.07189192 56.13613158 74.14405233 57.625 76.3125 C58.53082255 77.60707003 59.43707744 78.90133765 60.34375 80.1953125 C60.79363281 80.84145508 61.24351563 81.48759766 61.70703125 82.15332031 C63.48160586 84.68785248 65.30005552 87.1890641 67.125 89.6875 C67.75664063 90.55632812 68.38828125 91.42515625 69.0390625 92.3203125 C70.44226662 94.23783845 71.85480268 96.1485493 73.2734375 98.0546875 C74.00820312 99.04726562 74.74296875 100.03984375 75.5 101.0625 C76.1703125 101.96097656 76.840625 102.85945313 77.53125 103.78515625 C79 106 79 106 79 108 C79.66 108 80.32 108 81 108 C81.8125 110.0625 81.8125 110.0625 82 113 C79.60130622 117.72209224 75.75362836 121.34261852 72 125 C69.9036957 127.46624035 68.09327947 129.84329048 66.4375 132.625 C65.11029303 134.81777673 63.79212982 136.20787018 62 138 C60.97388051 139.65071396 59.97691857 141.31970006 59 143 C57.7295036 145.04049422 56.40568804 147.05017465 55 149 C54.34 149 53.68 149 53 149 C52.7525 149.8971875 52.505 150.794375 52.25 151.71875 C50.9254883 155.19559321 49.58895321 156.87406174 47 159.5 C42.7099946 164.06677994 39.09220718 168.86135509 35.5390625 174.00195312 C33.56449473 176.84938446 31.55217718 179.58289676 29.3046875 182.22265625 C26.98082642 185.02310579 25.59056011 187.74658158 24 191 C22.4375 192.875 22.4375 192.875 21 194 C20.34 194 19.68 194 19 194 C18.731875 194.928125 18.46375 195.85625 18.1875 196.8125 C17.0114527 199.96925854 16.32382641 200.78308085 14 203 C10.36964633 207.43394758 7.51819218 211.84370172 5 217 C3.4375 218.875 3.4375 218.875 2 220 C1.34 220 0.68 220 0 220 C0 147.4 0 74.8 0 0 Z " fill="#FFFCFD" transform="translate(0,2)"/>
<path d="M0 0 C17.42950592 -0.04010881 17.42950592 -0.04010881 24.83398438 -0.04882812 C29.89511152 -0.05481611 34.95622064 -0.06191521 40.01733398 -0.07543945 C44.09568543 -0.08626991 48.17401757 -0.09227717 52.25238228 -0.09487724 C53.81177639 -0.09673121 55.3711694 -0.10035127 56.93055534 -0.10573006 C59.10729162 -0.11294262 61.28394714 -0.11399085 63.46069336 -0.11352539 C65.32267616 -0.11685631 65.32267616 -0.11685631 67.22227478 -0.12025452 C70 0 70 0 71 1 C71.0942174 3.11681317 71.11742761 5.23680758 71.11352539 7.35571289 C71.11364593 8.02986205 71.11376646 8.70401121 71.11389065 9.39858913 C71.11314174 11.58997791 71.10551454 13.7812826 71.09765625 15.97265625 C71.09618676 17.321899 71.09516609 18.67114231 71.09460449 20.02038574 C71.0893524 25.0344325 71.0753913 30.04846707 71.0625 35.0625 C71.041875 46.261875 71.02125 57.46125 71 69 C47.57 69 24.14 69 0 69 C0 46.23 0 23.46 0 0 Z " fill="#FFF1F4" transform="translate(118,79)"/>
<path d="M0 0 C5.17779459 4.43810964 10.13919954 8.86842723 15 13.625 C15.69222656 14.27984375 16.38445312 14.9346875 17.09765625 15.609375 C17.74605469 16.24617188 18.39445312 16.88296875 19.0625 17.5390625 C19.65160156 18.10834473 20.24070313 18.67762695 20.84765625 19.26416016 C22 21 22 21 21.7734375 23.07568359 C20.83322811 25.41492931 19.6774936 27.12120716 18 29 C17.34 29 16.68 29 16 29 C15.7525 29.5775 15.505 30.155 15.25 30.75 C13.81700012 33.32939979 12.21575324 35.06121592 10 37 C9.34 37 8.68 37 8 37 C8 37.66 8 38.32 8 39 C8.8971875 39.433125 8.8971875 39.433125 9.8125 39.875 C12 41 12 41 15 43 C16.01320312 41.98292969 16.01320312 41.98292969 17.046875 40.9453125 C19.18960655 38.80106986 21.34943271 36.67521412 23.515625 34.5546875 C24.76049358 33.32820306 26.00528396 32.10163925 27.25 30.875 C27.88679688 30.25496094 28.52359375 29.63492188 29.1796875 28.99609375 C29.78554687 28.39667969 30.39140625 27.79726562 31.015625 27.1796875 C31.83981934 26.37120361 31.83981934 26.37120361 32.68066406 25.54638672 C34.23494491 23.92045285 34.23494491 23.92045285 35 21 C34.34 21 33.68 21 33 21 C31.51953125 19.4609375 31.51953125 19.4609375 29.8125 17.375 C26.8899337 13.91212733 23.84169098 11.02489092 20.28515625 8.2265625 C19.86105469 7.82179688 19.43695313 7.41703125 19 7 C19 6.34 19 5.68 19 5 C18.360625 4.731875 17.72125 4.46375 17.0625 4.1875 C15 3 15 3 14 0 C25.55 0 37.1 0 49 0 C49 15.84 49 31.68 49 48 C32.83 48 16.66 48 0 48 C0 32.16 0 16.32 0 0 Z " fill="#FF0235" transform="translate(129,90)"/>
<path d="M0 0 C5.17779459 4.43810964 10.13919954 8.86842723 15 13.625 C15.69222656 14.27984375 16.38445312 14.9346875 17.09765625 15.609375 C17.74605469 16.24617188 18.39445312 16.88296875 19.0625 17.5390625 C19.65160156 18.10834473 20.24070313 18.67762695 20.84765625 19.26416016 C22 21 22 21 21.7734375 23.07568359 C20.83322811 25.41492931 19.6774936 27.12120716 18 29 C17.34 29 16.68 29 16 29 C15.7525 29.5775 15.505 30.155 15.25 30.75 C13.81700012 33.32939979 12.21575324 35.06121592 10 37 C9.34 37 8.68 37 8 37 C8 37.66 8 38.32 8 39 C8.61875 39.2475 9.2375 39.495 9.875 39.75 C12 41 12 41 14 45 C25.22 45.33 36.44 45.66 48 46 C48 31.15 48 16.3 48 1 C37.44 1 26.88 1 16 1 C15.67 1.66 15.34 2.32 15 3 C14.67 2.01 14.34 1.02 14 0 C25.55 0 37.1 0 49 0 C49 15.84 49 31.68 49 48 C32.83 48 16.66 48 0 48 C0 32.16 0 16.32 0 0 Z " fill="#FF1543" transform="translate(129,90)"/>
<path d="M0 0 C0.33 0.66 0.66 1.32 1 2 C-0.23551244 5.70653731 -1.96665078 6.64915435 -5 9 C-5.33 9.66 -5.66 10.32 -6 11 C-6.66 10.67 -7.32 10.34 -8 10 C-5.36 6.7 -2.72 3.4 0 0 Z " fill="#FF7894" transform="translate(75,122)"/>
</svg>
